<svg width="81" height="47" viewBox="0 0 81 47" fill="none" xmlns="http://www.w3.org/2000/svg">
<path d="M26.3023 0.110399L0.119713 24.0917C-0.0440978 24.2419 -0.0391548 24.4865 0.130608 24.6308L26.3131 46.8993C26.5747 47.1216 27 46.9519 27 46.625V40.3384C27 40.2391 26.9568 40.1438 26.8803 40.0736L10.0204 24.6312C9.86078 24.485 9.86078 24.2481 10.0204 24.1018L26.8803 8.6593C26.9568 8.58908 27 8.49386 27 8.39458V0.375114C27 0.0415912 26.5599 -0.125437 26.3023 0.110399Z" fill="#5A8BD6"/>
<path d="M54.6977 0.110399L80.8803 24.0917C81.0441 24.2419 81.0392 24.4865 80.8694 24.6308L54.6869 46.8993C54.4253 47.1216 54 46.9519 54 46.625V40.3384C54 40.2391 54.0432 40.1438 54.1197 40.0736L70.9796 24.6312C71.1392 24.485 71.1392 24.2481 70.9796 24.1018L54.1197 8.6593C54.0432 8.58908 54 8.49386 54 8.39458V0.375114C54 0.0415912 54.4401 -0.125437 54.6977 0.110399Z" fill="#5A8BD6"/>
<path d="M30.1434 46.5814L34.262 34.7984C34.3013 34.686 34.3934 34.6127 34.4955 34.6127H38.7185C38.9002 34.6127 39.0226 34.8348 38.9509 35.0342L34.7111 46.8172C34.6713 46.9281 34.5798 47 34.4788 47H30.3767C30.1964 47 30.0738 46.7805 30.1434 46.5814Z" fill="#5A8BD6"/>
<path d="M42.3095 12.0739L46.4281 0.290914C46.4674 0.178522 46.5595 0.105255 46.6616 0.105255H50.8846C51.0663 0.105255 51.1887 0.327319 51.117 0.526724L46.8772 12.3098C46.8373 12.4206 46.7459 12.4925 46.6449 12.4925H42.5428C42.3625 12.4925 42.2399 12.273 42.3095 12.0739Z" fill="#5A8BD6"/>
<path d="M31 23.5C31 28.1944 35.1345 32 40.2348 32C42.3163 32 44.2369 31.2451 45.7813 30.1648C45.921 30.067 46 29.9138 46 29.7525V28.5272C46 27.9827 45.0798 27.7112 44.637 28.0725C43.4656 29.0287 41.924 29.6094 40.2348 29.6094C36.569 29.6094 33.5973 26.8742 33.5973 23.5C33.5973 20.1258 36.569 17.3906 40.2348 17.3906C41.9223 17.3906 43.4624 17.9585 44.6336 18.9058C45.0778 19.2651 46 18.9926 46 18.4481V17.2475C46 17.0862 45.921 16.933 45.7813 16.8352C44.2369 15.7549 42.3163 15 40.2348 15C35.1345 15 31 18.8056 31 23.5Z" fill="#5A8BD6" stroke="#5A8BD6" stroke-width="2"/>
</svg>
