<svg version="1.2" baseProfile="tiny-ps" xmlns="http://www.w3.org/2000/svg" viewBox="0 0 441 256" width="441" height="256">
	<title>Layer</title>
	<style>
		tspan { white-space:pre }
		.shp0 { fill: #5a8bd6 } 
		.shp1 { fill: #5a8bd6;stroke: #5a8bd6;stroke-width: 2 } 
	</style>
	<path id="Layer" class="shp0" d="M143.2 0.6L0.65 131.17C-0.24 131.98 -0.21 133.31 0.71 134.1L143.26 255.34C144.68 256.55 147 255.63 147 253.85L147 219.62C147 219.08 146.76 218.56 146.35 218.18L54.56 134.1C53.69 133.31 53.69 132.02 54.56 131.22L146.35 47.14C146.76 46.76 147 46.24 147 45.7L147 2.04C147 0.23 144.6 -0.68 143.2 0.6Z" />
	<path id="Layer" class="shp0" d="M297.8 0.6L440.35 131.17C441.24 131.98 441.21 133.31 440.29 134.1L297.74 255.34C296.32 256.55 294 255.63 294 253.85L294 219.62C294 219.08 294.24 218.56 294.65 218.18L386.44 134.1C387.31 133.31 387.31 132.02 386.44 131.22L294.65 47.14C294.24 46.76 294 46.24 294 45.7L294 2.04C294 0.23 296.4 -0.68 297.8 0.6Z" />
	<path id="Layer" class="shp0" d="M164.11 253.61L186.54 189.46C186.75 188.85 187.25 188.45 187.81 188.45L210.8 188.45C211.79 188.45 212.46 189.66 212.07 190.74L188.98 254.89C188.77 255.5 188.27 255.89 187.72 255.89L165.38 255.89C164.4 255.89 163.74 254.69 164.11 253.61Z" />
	<path id="Layer" class="shp0" d="M230.35 65.74L252.78 1.58C252.99 0.97 253.49 0.57 254.05 0.57L277.04 0.57C278.03 0.57 278.69 1.78 278.3 2.87L255.22 67.02C255 67.62 254.51 68.01 253.96 68.01L231.62 68.01C230.64 68.01 229.97 66.82 230.35 65.74Z" />
	<path id="Layer" class="shp1" d="M168.78 127.94C168.78 153.5 191.29 174.22 219.06 174.22C230.39 174.22 240.85 170.11 249.25 164.23C250.01 163.7 250.44 162.86 250.44 161.99L250.44 155.31C250.44 152.35 245.43 150.87 243.02 152.84C236.65 158.04 228.25 161.21 219.06 161.21C199.1 161.21 182.92 146.31 182.92 127.94C182.92 109.57 199.1 94.68 219.06 94.68C228.24 94.68 236.63 97.77 243.01 102.93C245.42 104.89 250.44 103.4 250.44 100.44L250.44 93.9C250.44 93.02 250.01 92.19 249.25 91.66C240.85 85.78 230.39 81.67 219.06 81.67C191.29 81.67 168.78 102.39 168.78 127.94Z" />
</svg>