<svg width="584" height="256" viewBox="0 0 584 256" fill="none" xmlns="http://www.w3.org/2000/svg">
<path d="M129.586 3.41422L1.46756 131.532C0.665988 132.334 0.690175 133.641 1.52087 134.412L129.639 253.379C130.919 254.567 133 253.66 133 251.914V218.328C133 217.798 132.789 217.289 132.414 216.914L49.9142 134.414C49.1332 133.633 49.1332 132.367 49.9142 131.586L132.414 49.0858C132.789 48.7107 133 48.202 133 47.6716V4.82843C133 3.04662 130.846 2.15429 129.586 3.41422Z" fill="#5A8BD6"/>
<path d="M230.22 79.2011L264.206 1.2011C264.524 0.471655 265.244 0 266.039 0H298.002C299.429 0 300.397 1.45083 299.849 2.76805L267.407 80.7681C267.097 81.514 266.368 82 265.56 82H232.053C230.612 82 229.644 80.5222 230.22 79.2011Z" fill="#5A8BD6"/>
<path d="M156.157 253.229L188.724 175.229C189.035 174.485 189.763 174 190.57 174H223.963C225.4 174 226.368 175.47 225.801 176.79L192.275 254.79C191.96 255.524 191.237 256 190.438 256H158.002C156.575 256 155.607 254.547 156.157 253.229Z" fill="#5A8BD6"/>
<path fill-rule="evenodd" clip-rule="evenodd" d="M540 98.5C538.895 98.5 538 99.3954 538 100.5V160.5C538 161.605 538.895 162.5 540 162.5H546C547.105 162.5 548 161.605 548 160.5V132.5L548.048 132.499C562.366 132.203 575.064 139.759 574.5 158.5V163H583.5V160C583.5 141.498 577.002 126.5 558.5 126.5H568C575.732 126.5 582 120.232 582 112.5C582 104.768 575.732 98.5 568 98.5H540ZM566 105.5H547.5V120.5H566C569.866 120.5 573 117.418 573 113C573 108.582 569.866 105.5 566 105.5Z" fill="#5A8BD6"/>
<path d="M481 106.5C479.895 106.5 479 105.605 479 104.5V100.5C479 99.3954 479.895 98.5 481 98.5H518C519.105 98.5 520 99.3954 520 100.5V104.5C520 105.605 519.105 106.5 518 106.5H481Z" fill="#5A8BD6"/>
<path d="M481 134.5C479.895 134.5 479 133.605 479 132.5V128.5C479 127.395 479.895 126.5 481 126.5H518C519.105 126.5 520 127.395 520 128.5V132.5C520 133.605 519.105 134.5 518 134.5H481Z" fill="#5A8BD6"/>
<path d="M481 162.5C479.895 162.5 479 161.605 479 160.5V156.5C479 155.395 479.895 154.5 481 154.5H518C519.105 154.5 520 155.395 520 156.5V160.5C520 161.605 519.105 162.5 518 162.5H481Z" fill="#5A8BD6"/>
<path d="M407 104.5V100.5C407 99.3954 407.895 98.5 409 98.5H459C460.105 98.5 461 99.3954 461 100.5V104.5C461 105.605 460.105 106.5 459 106.5H440C438.895 106.5 438 107.395 438 108.5V160.5C438 161.605 437.105 162.5 436 162.5H430C428.895 162.5 428 161.605 428 160.5V108.5C428 107.395 427.105 106.5 426 106.5H409C407.895 106.5 407 105.605 407 104.5Z" fill="#5A8BD6"/>
<path d="M350.709 99H381.636C386.401 99 377.774 105.946 373.009 105.946H354.837C351.539 105.946 348.48 106.768 346.373 108.503C342.696 111.53 342.48 117.758 345.313 121.586C345.65 122.041 346.026 122.49 346.44 122.924C348.845 125.445 352.515 126 356 126H360H366.5C368.257 125.965 371.743 126.035 373.5 126C381.636 125.838 389.5 130.752 389.5 143.894C390.5 151.266 382.176 162.504 373.5 162.504H335.043C335.717 158.625 344.098 155.558 348 155.558H368.622C374.996 155.558 380.164 150.336 380.164 143.894C380.164 140.253 378.353 136.223 375.589 133.564C372.764 130.847 368.526 130.752 364.607 130.752H362.5H353.425H351.5H350.709C342.033 130.752 335 123.644 335 114.876C335 106.108 342.033 99 350.709 99Z" fill="#5A8BD6"/>
<path d="M279 160.5V100.5C279 99.3954 279.895 98.5 281 98.5H287C288.105 98.5 289 99.3954 289 100.5V152.131C289 153.235 289.895 154.131 291 154.131H315C316.105 154.131 317 155.026 317 156.131V160.5C317 161.605 316.105 162.5 315 162.5H281C279.895 162.5 279 161.605 279 160.5Z" fill="#5A8BD6"/>
<path d="M220.225 155.547C220.081 154.036 221.621 152.9 223.089 153.285C231.498 155.489 240.804 152.809 246.702 145.657C246.769 145.575 246.836 145.493 246.902 145.411C247.433 144.75 248.299 144.436 249.115 144.667L254.333 146.146C255.582 146.5 256.169 147.935 255.438 149.008C254.884 149.822 254.288 150.617 253.649 151.391C245.771 160.944 233.523 164.763 222.205 162.339C221.383 162.163 220.79 161.46 220.711 160.624L220.225 155.547Z" fill="#5A8BD6"/>
<path d="M211.195 116.348C209.838 117.994 208.747 119.772 207.918 121.629C207.334 122.939 205.644 123.452 204.538 122.539L200.659 119.338C199.974 118.773 199.738 117.82 200.127 117.022C201.217 114.777 202.59 112.624 204.248 110.613C210.876 102.576 220.598 98.5977 230.257 98.9816C231.395 99.0269 232.2 100.073 232.032 101.199L231.283 106.197C231.127 107.243 230.182 107.977 229.124 107.97C222.437 107.925 215.784 110.783 211.195 116.348Z" fill="#5A8BD6"/>
<path d="M235.054 101.66C235.234 100.538 236.316 99.7851 237.413 100.085C241.655 101.243 245.725 103.299 249.337 106.28C260.392 115.406 263.756 130.4 258.642 143.024C258.276 143.926 257.282 144.381 256.344 144.124L251.553 142.815C250.302 142.473 249.706 141.048 250.205 139.852C254.003 130.735 251.61 119.842 243.603 113.233C241.218 111.265 238.556 109.858 235.775 108.997C234.763 108.683 234.083 107.697 234.251 106.651L235.054 101.66Z" fill="#5A8BD6"/>
<path d="M207.114 148.039C205.707 149.746 205.948 152.27 207.653 153.678C209.358 155.085 211.882 154.843 213.289 153.136C214.697 151.429 214.455 148.905 212.75 147.497C211.045 146.09 208.522 146.332 207.114 148.039Z" fill="#5A8BD6"/>
<path d="M198.317 130.39C196.91 132.096 197.151 134.621 198.856 136.028C200.561 137.436 203.085 137.194 204.492 135.487C205.9 133.78 205.659 131.255 203.953 129.848C202.248 128.44 199.725 128.683 198.317 130.39Z" fill="#5A8BD6"/>
<path d="M127 130.5C127 148.173 141.333 162.5 159.014 162.5C166.23 162.5 172.888 159.658 178.242 155.591C178.726 155.223 179 154.646 179 154.039V149.426C179 147.376 175.81 146.354 174.275 147.714C170.214 151.314 164.87 153.5 159.014 153.5C146.306 153.5 136.004 143.203 136.004 130.5C136.004 117.797 146.306 107.5 159.014 107.5C164.864 107.5 170.203 109.638 174.263 113.204C175.803 114.557 179 113.531 179 111.481V106.961C179 106.354 178.726 105.777 178.242 105.409C172.888 101.342 166.23 98.5 159.014 98.5C141.333 98.5 127 112.827 127 130.5Z" fill="#5A8BD6"/>
</svg>
