<svg viewBox="0 0 1348 257" xmlns="http://www.w3.org/2000/svg" xmlns:xlink="http://www.w3.org/1999/xlink"><path fill="rgba(72, 119, 211, 1)" d="M 0 175 C 1.5 175 1.5 172 3 172 L 3 172 L 3 0 L 0 0 Z" stroke-width="0"></path> <path fill="rgba(72, 119, 211, 1)" d="M 2 172 C 121.5 172 121.5 195 241 195 L 241 195 L 241 0 L 2 0 Z" stroke-width="0"></path> <path fill="rgba(72, 119, 211, 1)" d="M 240 195 C 464.5 195 464.5 161 689 161 L 689 161 L 689 0 L 240 0 Z" stroke-width="0"></path><path fill="rgba(72, 119, 211, 1)" d="M 688 161 C 887.5 161 887.5 199 1087 199 L 1087 199 L 1087 0 L 688 0 Z" stroke-width="0"></path><path fill="rgba(72, 119, 211, 1)" d="M 1086 199 C 1206 199 1206 183 1326 183 L 1326 183 L 1326 0 L 1086 0 Z" stroke-width="0"></path><path fill="rgba(72, 119, 211, 1)" d="M 1325 183 C 1336.5 183 1336.5 183 1348 183 L 1348 183 L 1348 0 L 1325 0 Z" stroke-width="0"></path></svg>
